<svg xmlns="http://www.w3.org/2000/svg" viewBox="0 0 64 64" role="img" aria-label="Pack It icon">
  <defs>
    <linearGradient id="bg" x1="0" x2="0" y1="0" y2="1">
      <stop offset="0%" stop-color="#2a1d11" />
      <stop offset="100%" stop-color="#0f172a" />
    </linearGradient>
    <linearGradient id="tube" x1="0" x2="1" y1="0" y2="1">
      <stop offset="0%" stop-color="#f59e0b" />
      <stop offset="100%" stop-color="#fb7185" />
    </linearGradient>
    <linearGradient id="apple" x1="0" x2="1" y1="0" y2="1">
      <stop offset="0%" stop-color="#ef4444" />
      <stop offset="100%" stop-color="#b91c1c" />
    </linearGradient>
  </defs>

  <rect width="64" height="64" rx="14" fill="url(#bg)" />
  <rect x="11" y="10" width="42" height="44" rx="18" fill="none" stroke="rgba(148,163,184,0.22)" stroke-width="1.5" />

  <path d="M23 13v34c0 4.4 2.9 7 7 7s7-2.6 7-7V13" fill="none" stroke="url(#tube)" stroke-width="3" stroke-linecap="round" />
  <path d="M21 13h4" stroke="#fb923c" stroke-width="3" stroke-linecap="round" />
  <path d="M39 13h4" stroke="#fb923c" stroke-width="3" stroke-linecap="round" />
  <rect x="25" y="39" width="10" height="11" rx="2" fill="#5b3417" opacity="0.8" />

  <circle cx="30" cy="33" r="6.4" fill="url(#apple)" />
  <circle cx="34.8" cy="33" r="6.4" fill="url(#apple)" />
  <ellipse cx="32.3" cy="38.2" rx="8.8" ry="6.2" fill="url(#apple)" />
  <path d="M32 25.5c0-2.5 1.4-4.7 3.8-5.9" fill="none" stroke="#7c2d12" stroke-width="2" stroke-linecap="round" />
  <path d="M34.7 20.3c2-.6 4 .1 5.2 1.8c-2.1 1.5-4.4 1.4-6.6-.1" fill="#65a30d" />

  <circle cx="30" cy="33" r="1.1" fill="#fca5a5" opacity="0.55" />
  <circle cx="35.3" cy="31.8" r="1.1" fill="#fca5a5" opacity="0.45" />
</svg>
